<?xml version="1.0" encoding="UTF-8" standalone="no"?>
<!-- Created with Inkscape (http://www.inkscape.org/) -->

<svg
   xmlns:dc="http://purl.org/dc/elements/1.1/"
   xmlns:cc="http://creativecommons.org/ns#"
   xmlns:rdf="http://www.w3.org/1999/02/22-rdf-syntax-ns#"
   xmlns:svg="http://www.w3.org/2000/svg"
   xmlns="http://www.w3.org/2000/svg"
   xmlns:sodipodi="http://sodipodi.sourceforge.net/DTD/sodipodi-0.dtd"
   xmlns:inkscape="http://www.inkscape.org/namespaces/inkscape"
   width="22"
   height="22"
   id="svg2"
   version="1.1"
   inkscape:version="0.47 r22583"
   sodipodi:docname="dropboxstatus-logo.svg">
  <defs
     id="defs4">
    <inkscape:perspective
       sodipodi:type="inkscape:persp3d"
       inkscape:vp_x="0 : 526.18109 : 1"
       inkscape:vp_y="0 : 1000 : 0"
       inkscape:vp_z="744.09448 : 526.18109 : 1"
       inkscape:persp3d-origin="372.04724 : 350.78739 : 1"
       id="perspective10" />
    <inkscape:perspective
       id="perspective2902"
       inkscape:persp3d-origin="0.5 : 0.33333333 : 1"
       inkscape:vp_z="1 : 0.5 : 1"
       inkscape:vp_y="0 : 1000 : 0"
       inkscape:vp_x="0 : 0.5 : 1"
       sodipodi:type="inkscape:persp3d" />
    <inkscape:perspective
       id="perspective2944"
       inkscape:persp3d-origin="0.5 : 0.33333333 : 1"
       inkscape:vp_z="1 : 0.5 : 1"
       inkscape:vp_y="0 : 1000 : 0"
       inkscape:vp_x="0 : 0.5 : 1"
       sodipodi:type="inkscape:persp3d" />
    <inkscape:perspective
       id="perspective3851"
       inkscape:persp3d-origin="0.5 : 0.33333333 : 1"
       inkscape:vp_z="1 : 0.5 : 1"
       inkscape:vp_y="0 : 1000 : 0"
       inkscape:vp_x="0 : 0.5 : 1"
       sodipodi:type="inkscape:persp3d" />
  </defs>
  <sodipodi:namedview
     id="base"
     pagecolor="#ffffff"
     bordercolor="#666666"
     borderopacity="1.0"
     inkscape:pageopacity="0.0"
     inkscape:pageshadow="2"
     inkscape:zoom="0.99999996"
     inkscape:cx="-0.58980193"
     inkscape:cy="9.6114101"
     inkscape:document-units="px"
     inkscape:current-layer="g2817"
     showgrid="false"
     showguides="true"
     inkscape:guide-bbox="true"
     inkscape:window-width="1280"
     inkscape:window-height="950"
     inkscape:window-x="0"
     inkscape:window-y="24"
     inkscape:window-maximized="1" />
  <metadata
     id="metadata7">
    <rdf:RDF>
      <cc:Work
         rdf:about="">
        <dc:format>image/svg+xml</dc:format>
        <dc:type
           rdf:resource="http://purl.org/dc/dcmitype/StillImage" />
        <dc:title></dc:title>
      </cc:Work>
    </rdf:RDF>
  </metadata>
  <g
     inkscape:label="Ebene 1"
     inkscape:groupmode="layer"
     id="layer1"
     transform="translate(0,-1030.3622)">
    <g
       id="g2817"
       style="opacity:0.4">
      <path
         transform="translate(0,1030.3622)"
         sodipodi:nodetypes="cccccccccccccccccccc"
         id="path3857"
         d="M 7.53125,1.9375 0.875,6.28125 4.4375,9.1875 0.75,12.21875 l 4.3039976,2.570083 -0.044194,1.72097 6.0214466,3.458947 5.690641,-3.09467 0.04419,-1.965609 4.327665,-2.845971 -3.65625,-2.78125 3.78125,-3 L 14.53125,1.9375 11,5 7.53125,1.9375 z M 11,6.6875 l 4,2.59375 -4.09375,2.5 L 7,9.25 11,6.6875 z"
         style="fill:#eae3d0;stroke:none;stroke-width:1px;stroke-linecap:butt;stroke-linejoin:miter;stroke-opacity:1;fill-opacity:1;opacity:0.59999999999999998" />
      <path
         transform="translate(0,1030.3622)"
         sodipodi:nodetypes="cccccccccccccccccccccccccc"
         id="path3772"
         d="m 7.5,2.9375 -5.3125,3.4375 3.625,2.875 -3.625,2.90625 5.21875,3.0625 3.5,-2.75 3.75,2.75 5.03125,-3.25 L 16.15625,9.28125 19.8125,6.4375 14.5625,2.96875 11,6 l 5.09375,3.28125 -5.1875,3.125 L 5.9375,9.21875 11,6 7.5,2.9375 z M 10.9375,13.096891 7.4321383,15.841529 5.5625,14.96875 l 0,1.015165 L 11,19.0625 16.231694,16.166053 16.28125,15.0625 14.625,15.859835 10.9375,13.096891 z"
         style="fill:#3a3935;fill-opacity:1;stroke:none" />
    </g>
  </g>
</svg>
